<svg xmlns="http://www.w3.org/2000/svg" version="1.1" xmlns:xlink="http://www.w3.org/1999/xlink" xmlns:svgjs="http://svgjs.dev/svgjs" width="1440" height="560" preserveAspectRatio="none" viewBox="0 0 1440 560"><g mask="url(&quot;#SvgjsMask1378&quot;)" fill="none"><rect width="1440" height="560" x="0" y="0" fill="url(&quot;#SvgjsLinearGradient1379&quot;)"></rect><path d="M232.52 99.02L374.55 181.02L374.55 345.02L232.52 427.02L90.49 345.02L90.49 181.02zM90.49 345.02L232.52 427.02L232.52 591.02L90.49 673.02L-51.54 591.02L-51.54 427.02zM374.55 -146.98L516.59 -64.98L516.59 99.02L374.55 181.02L232.52 99.02L232.52 -64.98zM374.55 345.02L516.59 427.02L516.59 591.02L374.55 673.02L232.52 591.02L232.52 427.02zM658.62 -146.98L800.65 -64.98L800.65 99.02L658.62 181.02L516.59 99.02L516.59 -64.98zM1226.75 345.02L1368.78 427.02L1368.78 591.02L1226.75 673.02L1084.72 591.02L1084.72 427.02zM1510.81 -146.98L1652.84 -64.98L1652.84 99.02L1510.81 181.02L1368.78 99.02L1368.78 -64.98zM1652.84 99.02L1794.88 181.02L1794.88 345.02L1652.84 427.02L1510.81 345.02L1510.81 181.02z" stroke="#03305d" stroke-width="2"></path><path d="M216.12 99.02 a16.4 16.4 0 1 0 32.8 0 a16.4 16.4 0 1 0 -32.8 0zM358.15 181.02 a16.4 16.4 0 1 0 32.8 0 a16.4 16.4 0 1 0 -32.8 0zM358.15 345.02 a16.4 16.4 0 1 0 32.8 0 a16.4 16.4 0 1 0 -32.8 0zM216.12 427.02 a16.4 16.4 0 1 0 32.8 0 a16.4 16.4 0 1 0 -32.8 0zM74.09 345.02 a16.4 16.4 0 1 0 32.8 0 a16.4 16.4 0 1 0 -32.8 0zM74.09 181.02 a16.4 16.4 0 1 0 32.8 0 a16.4 16.4 0 1 0 -32.8 0zM216.12 591.02 a16.4 16.4 0 1 0 32.8 0 a16.4 16.4 0 1 0 -32.8 0zM74.09 673.02 a16.4 16.4 0 1 0 32.8 0 a16.4 16.4 0 1 0 -32.8 0zM-67.94 591.02 a16.4 16.4 0 1 0 32.8 0 a16.4 16.4 0 1 0 -32.8 0zM-67.94 427.02 a16.4 16.4 0 1 0 32.8 0 a16.4 16.4 0 1 0 -32.8 0zM358.15 -146.98 a16.4 16.4 0 1 0 32.8 0 a16.4 16.4 0 1 0 -32.8 0zM500.19 -64.98 a16.4 16.4 0 1 0 32.8 0 a16.4 16.4 0 1 0 -32.8 0zM500.19 99.02 a16.4 16.4 0 1 0 32.8 0 a16.4 16.4 0 1 0 -32.8 0zM216.12 -64.98 a16.4 16.4 0 1 0 32.8 0 a16.4 16.4 0 1 0 -32.8 0zM500.19 427.02 a16.4 16.4 0 1 0 32.8 0 a16.4 16.4 0 1 0 -32.8 0zM500.19 591.02 a16.4 16.4 0 1 0 32.8 0 a16.4 16.4 0 1 0 -32.8 0zM358.15 673.02 a16.4 16.4 0 1 0 32.8 0 a16.4 16.4 0 1 0 -32.8 0zM642.22 -146.98 a16.4 16.4 0 1 0 32.8 0 a16.4 16.4 0 1 0 -32.8 0zM784.25 -64.98 a16.4 16.4 0 1 0 32.8 0 a16.4 16.4 0 1 0 -32.8 0zM784.25 99.02 a16.4 16.4 0 1 0 32.8 0 a16.4 16.4 0 1 0 -32.8 0zM642.22 181.02 a16.4 16.4 0 1 0 32.8 0 a16.4 16.4 0 1 0 -32.8 0zM1210.35 345.02 a16.4 16.4 0 1 0 32.8 0 a16.4 16.4 0 1 0 -32.8 0zM1352.38 427.02 a16.4 16.4 0 1 0 32.8 0 a16.4 16.4 0 1 0 -32.8 0zM1352.38 591.02 a16.4 16.4 0 1 0 32.8 0 a16.4 16.4 0 1 0 -32.8 0zM1210.35 673.02 a16.4 16.4 0 1 0 32.8 0 a16.4 16.4 0 1 0 -32.8 0zM1068.32 591.02 a16.4 16.4 0 1 0 32.8 0 a16.4 16.4 0 1 0 -32.8 0zM1068.32 427.02 a16.4 16.4 0 1 0 32.8 0 a16.4 16.4 0 1 0 -32.8 0zM1494.41 -146.98 a16.4 16.4 0 1 0 32.8 0 a16.4 16.4 0 1 0 -32.8 0zM1636.44 -64.98 a16.4 16.4 0 1 0 32.8 0 a16.4 16.4 0 1 0 -32.8 0zM1636.44 99.02 a16.4 16.4 0 1 0 32.8 0 a16.4 16.4 0 1 0 -32.8 0zM1494.41 181.02 a16.4 16.4 0 1 0 32.8 0 a16.4 16.4 0 1 0 -32.8 0zM1352.38 99.02 a16.4 16.4 0 1 0 32.8 0 a16.4 16.4 0 1 0 -32.8 0zM1352.38 -64.98 a16.4 16.4 0 1 0 32.8 0 a16.4 16.4 0 1 0 -32.8 0zM1778.48 181.02 a16.4 16.4 0 1 0 32.8 0 a16.4 16.4 0 1 0 -32.8 0zM1778.48 345.02 a16.4 16.4 0 1 0 32.8 0 a16.4 16.4 0 1 0 -32.8 0zM1636.44 427.02 a16.4 16.4 0 1 0 32.8 0 a16.4 16.4 0 1 0 -32.8 0zM1494.41 345.02 a16.4 16.4 0 1 0 32.8 0 a16.4 16.4 0 1 0 -32.8 0z" fill="#03305d"></path><path d="M224.08 -116.2L330.6 -54.7L330.6 68.3L224.08 129.8L117.55 68.3L117.55 -54.7zM650.17 252.8L756.7 314.3L756.7 437.3L650.17 498.8L543.65 437.3L543.65 314.3zM863.22 252.8L969.75 314.3L969.75 437.3L863.22 498.8L756.7 437.3L756.7 314.3zM969.75 437.3L1076.27 498.8L1076.27 621.8L969.75 683.3L863.22 621.8L863.22 498.8zM1076.27 -116.2L1182.8 -54.7L1182.8 68.3L1076.27 129.8L969.75 68.3L969.75 -54.7zM1182.8 437.3L1289.32 498.8L1289.32 621.8L1182.8 683.3L1076.27 621.8L1076.27 498.8zM1289.32 -116.2L1395.84 -54.7L1395.84 68.3L1289.32 129.8L1182.8 68.3L1182.8 -54.7zM1395.84 437.3L1502.37 498.8L1502.37 621.8L1395.84 683.3L1289.32 621.8L1289.32 498.8z" stroke="rgba(6, 80, 156, 0.93)" stroke-width="2"></path></g><defs><mask id="SvgjsMask1378"><rect width="1440" height="560" fill="#ffffff"></rect></mask><linearGradient x1="15.28%" y1="-39.29%" x2="84.72%" y2="139.29%" gradientUnits="userSpaceOnUse" id="SvgjsLinearGradient1379"><stop stop-color="#0e2a47" offset="0"></stop><stop stop-color="rgba(0, 69, 158, 1)" offset="1"></stop></linearGradient></defs></svg>