<svg xmlns="http://www.w3.org/2000/svg" version="1.1" xmlns:xlink="http://www.w3.org/1999/xlink" xmlns:svgjs="http://svgjs.dev/svgjs" width="1440" height="560" preserveAspectRatio="none" viewBox="0 0 1440 560"><g mask="url(&quot;#SvgjsMask1080&quot;)" fill="none"><rect width="1440" height="560" x="0" y="0" fill="url(&quot;#SvgjsLinearGradient1081&quot;)"></rect><path d="M0 0L613.94 0L0 119.18z" fill="rgba(255, 255, 255, .1)"></path><path d="M0 119.18L613.94 0L660.6300000000001 0L0 255.43z" fill="rgba(255, 255, 255, .075)"></path><path d="M0 255.43L660.6300000000001 0L803.1200000000001 0L0 360.3z" fill="rgba(255, 255, 255, .05)"></path><path d="M0 360.3L803.1200000000001 0L1077.43 0L0 383.68z" fill="rgba(255, 255, 255, .025)"></path><path d="M1440 560L774.36 560L1440 342.37z" fill="rgba(0, 0, 0, .1)"></path><path d="M1440 342.37L774.36 560L666.48 560L1440 177.66z" fill="rgba(0, 0, 0, .075)"></path><path d="M1440 177.65999999999997L666.48 560L281.5 560L1440 95.54999999999997z" fill="rgba(0, 0, 0, .05)"></path><path d="M1440 95.54999999999995L281.5 560L233.52 560L1440 50.62999999999995z" fill="rgba(0, 0, 0, .025)"></path></g><defs><mask id="SvgjsMask1080"><rect width="1440" height="560" fill="#ffffff"></rect></mask><linearGradient x1="15.28%" y1="-39.29%" x2="84.72%" y2="139.29%" gradientUnits="userSpaceOnUse" id="SvgjsLinearGradient1081"><stop stop-color="rgba(142, 202, 230, 1)" offset="0"></stop><stop stop-color="rgba(251, 133, 0, 1)" offset="1"></stop></linearGradient></defs></svg>